<?xml version="1.0" encoding="utf-8"?>
<!-- Generator: Adobe Illustrator 21.0.0, SVG Export Plug-In . SVG Version: 6.00 Build 0)  -->
<svg version="1.1" id="Layer_1" xmlns="http://www.w3.org/2000/svg" xmlns:xlink="http://www.w3.org/1999/xlink" x="0px" y="0px"
	 viewBox="0 0 2000 2000" style="enable-background:new 0 0 2000 2000;" xml:space="preserve">
<style type="text/css">
	.st0{display:none;fill:#FEFEFE;}
	.st1{fill:#FFFFFF;}
	.st2{display:none;fill:#FDFDFD;}
</style>
<g>
	<path class="st0" d="M1004.1,2005.7c-329.5,0-659-0.1-988.6,0.3c-11.2,0-12.9-3.1-12.9-13.4c0.3-659,0.3-1318.1-0.1-1977.1
		C2.5,4.2,5.7,2.6,15.9,2.6C675,2.9,1334,2.9,1993.1,2.6c11.2,0,12.9,3.1,12.9,13.4c-0.3,659-0.3,1318.1,0.1,1977.1
		c0,11.2-3.1,12.9-13.4,12.9C1663.1,2005.7,1333.6,2005.7,1004.1,2005.7z M1945.7,995.2C1947.1,478.8,1528,61,1018.4,54
		c-528.7-7.3-949.6,419-955.9,928.7c-6.5,527.5,419,948.9,929.9,954.8C1520.8,1943.7,1948.4,1514,1945.7,995.2z"/>
	<path class="st1" d="M1945.7,995.2c2.7,518.8-424.9,948.5-953.4,942.4C481.5,1931.7,56,1510.3,62.5,982.7
		c6.3-509.8,427.2-936,955.9-928.7C1528,61,1947.1,478.8,1945.7,995.2z M1860,989.3c-2.9-473.9-379.5-853.9-853.5-854.3
		c-473.9-0.4-853.9,378.8-854.3,852.8c-0.4,473.9,378.8,853.9,852.8,854.3C1478.8,1842.5,1856.2,1463.4,1860,989.3z"/>
	<path class="st2" d="M1860,989.3c-3.8,474-381.2,853.2-855,852.8c-474-0.4-853.2-380.4-852.8-854.3
		c0.4-474,380.4-853.2,854.3-852.8C1480.5,135.5,1857.1,515.5,1860,989.3z M1705.1,697.7c0.7,1.5,1.3,3.1,2,4.6
		c3.2-1.9,1.4-4.3,0.7-6.6c-46.2-108.5-113.3-202-203.2-278.1c-186.2-157.6-401-214.8-640.7-173.6
		c-131.4,22.6-248.1,79.8-350.5,165.4c-29.5,24.6-57.2,51.1-83.4,81.8c4,0,5.8,0.2,7.5,0c30.1-4.7,49.9,4.3,65.5,30.4
		c6.1,10.2,10.9,21,14.5,32.3c16.2,50.9,27.8,103.1,39.8,155.1c22.2,96.1,43.2,192.5,74.5,286.3c9.8,29.6,20.5,58.9,36.1,86
		c12.8,22.2,14,22.4,31,4.2c8.4-9,16.4-18.6,23.2-28.8c30.9-46.1,55.3-95.7,77.8-146.3c41.9-94.3,80.7-189.5,88.9-294
		c1-13.2,8.4-22.2,21.4-27.2c20.3-7.8,40.7-15,62.2-19c24.1-4.4,49.9,5.4,63.6,25.5c11.1,16.2,14.7,34.9,15.3,53.9
		c0.8,30.5-4.3,60.6-6.9,90.9c-1,11.1-2.5,22.2-3.8,34.3c6.4-2.1,6.2-6.5,7.9-9.6c1.8-3.3,3.7-6.5,5.5-9.8
		c33.8-59.8,86.9-98.2,145.7-129.8c60.5-32.5,125.8-48.3,194.1-52.9c66.8-4.4,131.4,5,193.1,31.6
		C1634.5,624.8,1672.9,657.4,1705.1,697.7z M397.1,1459.5c199.4,264.5,562.4,377.8,892.2,245.9c143.2-57.3,258-150.9,346.1-277.6
		c102.5-147.4,136.7-321.9,131.6-420.1c-0.4,0.7-1,1.4-1.2,2.2c-9.6,56.1-24.3,110.8-50,161.8c-71.5,141.9-183.8,237.9-332.7,290.9
		c-56.9,20.2-115.5,34-177,26.1c-51.3-6.7-81.8-35.4-92-86.1c-7.4-36.8-0.9-73,4-109.1c9.1-67.2,20.1-134.1,30.2-201.1
		c12.2-81.6,24.6-163.1,36.1-244.8c2.4-17.4,5.8-35.8-6-52.5c-34,34.9-61.1,74.7-83.2,118c-6.6,13-15.9,22-30.7,20.5
		c-15.4-1.6-23.5-12.6-27.3-27.1c-1.8-6.9-1.6-14.5-7.3-21.8c-4.3,55.8-8.5,109.8-12.7,163.7c-4,50.7-7.5,101.5-12.2,152.1
		c-4.9,53.1-8.3,106.3-4.5,159.6c1.8,25.1,6.2,49.6,23.9,69.9c10,11.6,9.1,26.3-2,37.1c-18.7,18.3-39.4,34.3-65.2,41.7
		c-10.4,3-20.6,6.6-32,4.7c-31.6-5.3-47.8-26.1-56.8-54.6c-11.6-36.7-14.2-74.6-13.5-112.6c1.9-91.3,10.9-182.3,18.5-273.2
		c1.6-18.6,2.6-37.3,3.9-56c-4.4,4.5-6.7,9.5-8.9,14.5c-22.8,49.9-48,98.6-79.5,143.7c-21.6,30.9-44.9,60.3-78.6,79.2
		c-16.4,9.2-34.1,15.5-52.9,13.5c-28.6-3.1-51.2-18.1-69.7-40c-19.8-23.4-34.4-49.9-47.6-77.3c-17-35.4-29.7-72.4-42.3-112.4
		c-1.6,5.3-2.7,7.9-3.1,10.6c-5.7,37-11.7,74-16.8,111.1c-8.1,58.3-18.8,116.2-22.6,175c-1.4,21.8,0.1,41.9,16.7,59.5
		c15.6,16.5,8.5,37.9-12.4,46.7C439.9,1449.4,419.5,1454.7,397.1,1459.5z M1268.1,728c2.9,5.1,6.6,3.2,9.5,3.3
		c32.6,0.8,47.4,14.2,54.2,46.4c4.9,23.2-1.3,45.4-4.4,67.7c-8.5,61-18.2,121.8-27.3,182.7c-9.1,60.4-18.5,120.8-27,181.3
		c-5.7,40.4-12.7,80.6-13.2,121.6c-0.2,12.5,3.6,19.2,17,21.1c35.3,4.8,70.1,2.9,104.5-5.7c66.1-16.4,118.1-54.6,159.5-107.3
		c84.6-107.6,104.2-230.7,77.8-361.4c-14.4-71.2-55.8-127.1-123.3-159.6c-49.7-23.9-102.3-25.6-155.6-16.3
		C1314.4,706.2,1290.8,715.4,1268.1,728z M367.3,573.6c-53,77-113.2,202.2-126.9,372.1c-9.3,114.9,33.8,334.5,78.2,382.9
		c6.9-50.6,16.8-100.1,26.6-149.6c24.9-125.1,49.7-250.3,73.8-375.6c3.2-16.5,11-33.1,7.5-49.9c-8.2-38.8-17.6-77.3-30-115
		C389.2,616.3,382,593.7,367.3,573.6z"/>
	<path class="st1" d="M397.1,1459.5c22.4-4.8,42.9-10.1,62.5-18.4c20.9-8.8,28-30.2,12.4-46.7c-16.6-17.6-18.1-37.7-16.7-59.5
		c3.8-58.8,14.5-116.7,22.6-175c5.1-37.1,11.1-74.1,16.8-111.1c0.4-2.7,1.5-5.3,3.1-10.6c12.6,40,25.3,77,42.3,112.4
		c13.2,27.4,27.8,53.9,47.6,77.3c18.5,21.8,41.1,36.9,69.7,40c18.7,2,36.5-4.3,52.9-13.5c33.8-18.9,57-48.3,78.6-79.2
		c31.5-45.1,56.7-93.7,79.5-143.7c2.3-5,4.5-10,8.9-14.5c-1.3,18.7-2.3,37.4-3.9,56c-7.6,91-16.6,181.9-18.5,273.2
		c-0.8,38,1.8,75.9,13.5,112.6c9,28.5,25.3,49.3,56.8,54.6c11.4,1.9,21.6-1.7,32-4.7c25.8-7.4,46.5-23.3,65.2-41.7
		c11-10.8,12-25.5,2-37.1c-17.7-20.4-22.1-44.8-23.9-69.9c-3.9-53.3-0.4-106.5,4.5-159.6c4.7-50.6,8.2-101.4,12.2-152.1
		c4.2-54,8.4-107.9,12.7-163.7c5.6,7.3,5.5,14.9,7.3,21.8c3.8,14.5,11.9,25.5,27.3,27.1c14.9,1.5,24.1-7.5,30.7-20.5
		c22.1-43.3,49.2-83.1,83.2-118c11.8,16.8,8.4,35.2,6,52.5c-11.5,81.7-23.9,163.2-36.1,244.8c-10.1,67-21.1,133.9-30.2,201.1
		c-4.9,36.1-11.4,72.4-4,109.1c10.3,50.7,40.7,79.5,92,86.1c61.4,8,120.1-5.8,177-26.1c148.9-53,261.3-148.9,332.7-290.9
		c25.7-51,40.4-105.7,50-161.8c0.1-0.8,0.8-1.5,1.2-2.2c5.1,98.2-29.2,272.7-131.6,420.1c-88.1,126.7-202.9,220.3-346.1,277.6
		C959.5,1837.3,596.4,1724,397.1,1459.5z"/>
	<path class="st1" d="M1705.1,697.7c-32.1-40.4-70.6-72.9-118.2-93.4c-61.7-26.5-126.3-36-193.1-31.6
		c-68.2,4.5-133.6,20.4-194.1,52.9c-58.8,31.6-111.8,70-145.7,129.8c-1.8,3.3-3.7,6.5-5.5,9.8c-1.7,3.1-1.5,7.4-7.9,9.6
		c1.4-12.1,2.9-23.2,3.8-34.3c2.6-30.3,7.7-60.4,6.9-90.9c-0.5-19-4.2-37.7-15.3-53.9c-13.8-20.1-39.5-29.9-63.6-25.5
		c-21.5,4-41.9,11.2-62.2,19c-13,5-20.4,14-21.4,27.2c-8.2,104.5-47,199.7-88.9,294c-22.5,50.6-46.9,100.2-77.8,146.3
		c-6.9,10.2-14.9,19.8-23.2,28.8c-17,18.3-18.3,18-31-4.2c-15.6-27.1-26.2-56.5-36.1-86c-31.2-93.7-52.3-190.2-74.5-286.3
		c-12-52-23.7-104.1-39.8-155.1c-3.6-11.3-8.4-22.1-14.5-32.3c-15.6-26-35.4-35.1-65.5-30.4c-1.7,0.3-3.5,0-7.5,0
		c26.2-30.6,53.9-57.1,83.4-81.8c102.4-85.6,219.1-142.8,350.5-165.4c239.8-41.2,454.5,16,640.7,173.6
		c89.9,76.1,157.1,169.6,203.2,278.1C1706.8,696.4,1705.9,697.1,1705.1,697.7z"/>
	<path class="st1" d="M1268.1,728c22.6-12.6,46.3-21.8,71.7-26.2c53.4-9.3,106-7.6,155.6,16.3c67.5,32.4,108.9,88.3,123.3,159.6
		c26.4,130.6,6.7,253.7-77.8,361.4c-41.5,52.8-93.5,90.9-159.5,107.3c-34.4,8.6-69.2,10.5-104.5,5.7c-13.4-1.8-17.1-8.5-17-21.1
		c0.5-41,7.5-81.2,13.2-121.6c8.6-60.5,17.9-120.9,27-181.3c9.2-60.9,18.8-121.7,27.3-182.7c3.1-22.3,9.3-44.5,4.4-67.7
		c-6.8-32.2-21.6-45.6-54.2-46.4C1274.7,731.3,1271,733.1,1268.1,728z"/>
	<path class="st1" d="M367.3,573.6c14.7,20.1,21.8,42.7,29.2,65c12.4,37.7,21.9,76.2,30,115c3.5,16.8-4.3,33.4-7.5,49.9
		c-24.2,125.3-48.9,250.5-73.8,375.6c-9.9,49.5-19.7,99-26.6,149.6c-44.4-48.3-87.5-267.9-78.2-382.9
		C254.2,775.9,314.4,650.7,367.3,573.6z"/>
	<path class="st1" d="M1707.7,695.8c0.7,2.3,2.5,4.7-0.7,6.6c-0.7-1.5-1.3-3.1-2-4.6C1705.9,697.1,1706.8,696.4,1707.7,695.8z"/>
</g>
</svg>